<svg width="18" height="18" viewBox="0 0 18 18" fill="none" xmlns="http://www.w3.org/2000/svg">
<path fill-rule="evenodd" clip-rule="evenodd" d="M7.76364 0.0592519C8.04231 0.0588438 8.35329 0.0592519 8.70261 0.0592519C11.4972 0.0592519 11.8285 0.0692907 12.932 0.119319C13.9525 0.165919 14.5065 0.33608 14.8754 0.479064C15.3638 0.668403 15.7121 0.894713 16.0782 1.26033C16.4445 1.62596 16.6713 1.97419 16.8615 2.46174C17.0047 2.82949 17.1755 3.38232 17.2219 4.40084C17.272 5.50203 17.283 5.83288 17.283 8.62075C17.283 11.4086 17.272 11.7395 17.2219 12.8407C17.1752 13.8592 17.0047 14.412 16.8615 14.7797C16.6718 15.2673 16.4445 15.6144 16.0782 15.9799C15.7118 16.3455 15.3641 16.5718 14.8754 16.7611C14.5069 16.9048 13.9525 17.0745 12.932 17.1211C11.8287 17.1711 11.4972 17.182 8.70261 17.182C5.90777 17.182 5.57651 17.1711 4.47318 17.1211C3.45268 17.0741 2.89876 16.9039 2.52965 16.7609C2.04115 16.5715 1.69223 16.3452 1.3259 15.9796C0.959567 15.614 0.732816 15.2666 0.542699 14.7789C0.399437 14.4111 0.228699 13.8584 0.182254 12.8398C0.132046 11.7386 0.12207 11.4078 0.12207 8.61813C0.12207 5.82848 0.132046 5.49942 0.182254 4.39823C0.228863 3.37971 0.399437 2.82687 0.542699 2.45864C0.732408 1.97117 0.959567 1.62294 1.3259 1.25731C1.69223 0.891693 2.04115 0.665384 2.52965 0.475554C2.8986 0.331917 3.45268 0.162164 4.47318 0.115401C5.43873 0.0719017 5.81291 0.0588441 7.76364 0.0566406V0.0592519ZM14.2897 1.79375C13.5963 1.79375 13.0337 2.35467 13.0337 3.0469C13.0337 3.73897 13.5963 4.30046 14.2897 4.30046C14.9831 4.30046 15.5457 3.73897 15.5457 3.0469C15.5457 2.35483 14.9831 1.79375 14.2897 1.79375ZM8.70261 3.25844C5.73417 3.25844 3.32749 5.66052 3.32749 8.62311C3.32749 11.5858 5.73417 13.9867 8.70261 13.9867C11.6711 13.9867 14.0768 11.5858 14.0768 8.62311C14.0768 5.66052 11.6711 3.25844 8.70261 3.25844Z" fill="white"/>
<path fill-rule="evenodd" clip-rule="evenodd" d="M8.70278 5.14062C10.6296 5.14062 12.1917 6.69957 12.1917 8.62276C12.1917 10.5458 10.6296 12.1049 8.70278 12.1049C6.77577 12.1049 5.21387 10.5458 5.21387 8.62276C5.21387 6.69957 6.77577 5.14062 8.70278 5.14062Z" fill="white"/>
</svg>
