<svg width="18" height="19" viewBox="0 0 18 19" fill="none" xmlns="http://www.w3.org/2000/svg">
<path d="M17.919 14.3953L17.8294 14.1249C17.6172 13.4929 16.9217 12.8339 16.2828 12.6602L13.9179 12.013C13.2766 11.8381 12.3619 12.0732 11.8926 12.5433L11.0368 13.4008C7.92636 12.5587 5.48731 10.1148 4.64796 6.99895L5.50387 6.14138C5.97308 5.67126 6.20764 4.75589 6.03317 4.11334L5.38833 1.74275C5.21385 1.10138 4.55486 0.404513 3.92537 0.194249L3.65542 0.103309C3.02472 -0.106956 2.12524 0.10569 1.65608 0.575771L0.375815 1.8597C0.147097 2.08765 0.000918643 2.73965 0.000918643 2.74203C-0.0438592 6.81466 1.54996 10.7384 4.42517 13.6193C7.29332 16.493 11.1948 18.0876 15.2477 18.0534C15.2689 18.0534 15.9385 17.9092 16.1672 17.6813L17.4475 16.3985C17.9166 15.9285 18.1288 15.0273 17.919 14.3953Z" fill="white"/>
</svg>
