<svg width="21" height="12" viewBox="0 0 21 12" fill="none" xmlns="http://www.w3.org/2000/svg">
<path d="M20.0071 11.5419C19.3018 11.9829 16.4325 12.1141 15.7381 11.6104C15.3571 11.3344 15.0088 10.9887 14.6778 10.6599C14.4467 10.4298 14.1837 10.3181 13.985 10.0685C13.8231 9.86407 13.7118 9.62311 13.5407 9.42199C13.2523 9.08353 12.808 8.79576 12.4563 9.20916C11.9274 9.83065 12.5398 11.0524 11.8342 11.5171C11.5975 11.6731 11.3589 11.7182 11.0633 11.6959L10.4085 11.7257C10.0236 11.7333 9.41429 11.7366 8.97692 11.6578C8.48847 11.57 8.08572 11.3037 7.64472 11.1082C6.80683 10.7374 6.00829 10.2321 5.40095 9.53202C3.74805 7.62578 1.52772 5.00389 0.665267 2.60709C0.487473 2.11458 0.019404 1.13987 0.46347 0.717278C1.06747 0.279368 4.03302 0.155405 4.49523 0.833163C4.68335 1.10811 4.80169 1.51176 4.93455 1.82347C5.09979 2.21236 5.18966 2.57923 5.44812 2.92354C5.67699 3.22913 5.84613 3.53611 6.02337 3.87123C6.22237 4.24702 6.40993 4.60749 6.65192 4.95375C6.81604 5.18914 7.25006 5.65685 7.52415 5.69195C8.19345 5.77747 8.15159 4.15398 8.10191 3.7573C8.05446 3.37538 8.0419 2.97034 8.05446 2.58285C8.06534 2.25247 8.09521 1.78698 7.89899 1.51705C7.57941 1.07691 6.86768 1.40646 6.81185 0.815055C6.92964 0.647079 6.90452 0.498045 7.68994 0.24009C8.30817 0.0370139 8.70758 0.0434208 9.11536 0.0760133C9.94711 0.142591 10.8288 -0.0822134 11.6313 0.186884C12.3977 0.44456 12.2794 1.53181 12.2537 2.18366C12.2194 3.07369 12.2559 3.94199 12.2537 4.84483C12.2526 5.25627 12.2364 5.65602 12.7382 5.62287C13.2094 5.59139 13.2571 5.1961 13.4818 4.86962C13.7947 4.41472 14.0813 3.95369 14.3998 3.50018C14.8288 2.88761 14.958 2.19926 15.3619 1.57165C15.5064 1.34684 15.6307 0.856283 15.8531 0.678835C16.0217 0.544844 16.3415 0.602229 16.5453 0.602229H17.0298C17.4011 0.606686 17.7795 0.611979 18.1605 0.62535C18.7095 0.644293 19.3244 0.525344 19.869 0.601951C22.218 0.93289 16.9165 5.94796 17.1923 6.84272C17.3832 7.46058 18.5923 8.15283 19.0288 8.65927C19.6108 9.33284 21.3946 10.6753 20.0071 11.5419Z" fill="white"/>
</svg>
