<svg width="116" height="80" viewBox="0 0 116 80" fill="none" xmlns="http://www.w3.org/2000/svg">
<path d="M36 0H116L96 80H16L36 0Z" fill="#CA151C"/>
<path d="M20 0H25L5 80H0L20 0Z" fill="#CA151C"/>
<path d="M51.7125 31.2794C51.7056 30.1437 51.7666 29.0086 51.8952 27.8801C52.6259 23.0903 55.3921 20.5666 61.3681 20.1546C65.146 19.8585 68.9456 19.9881 72.6937 20.5408C73.871 20.6314 75.0182 20.9522 76.0685 21.4846C77.1189 22.017 78.0514 22.7505 78.8116 23.6421C79.5718 24.5337 80.1446 25.5657 80.4966 26.6779C80.8486 27.7902 80.9728 28.9604 80.8618 30.1205C81.3678 37.0393 80.4809 43.9885 78.2522 50.5674C77.9618 51.9741 77.9089 53.4185 78.0957 54.8422C78.096 55.5318 77.956 56.2143 77.6839 56.8495C77.4119 57.4847 77.0135 58.0594 76.5121 58.5398C76.0108 59.0201 75.4167 59.3962 74.7653 59.6457C74.1139 59.8953 73.4183 60.0132 72.7199 59.9926C68.5967 59.9926 64.4735 59.9926 60.3503 59.9926C59.6043 60.0322 58.8584 59.9133 58.163 59.6439C57.4675 59.3746 56.8389 58.9611 56.3193 58.4313C55.7998 57.9016 55.4015 57.2679 55.1515 56.5732C54.9015 55.8785 54.8056 55.1388 54.8702 54.4044C54.9419 53.6409 54.7753 52.8741 54.3929 52.2067C54.0104 51.5393 53.4303 51.0033 52.7303 50.6704C50.3636 49.1774 48.484 47.0417 47.3174 44.5201C46.1509 41.9985 45.7469 39.1981 46.1541 36.4554C46.3367 34.1893 48.033 32.7729 51.843 31.3051L51.7125 31.2794ZM51.7125 34.6271C51.2712 34.6334 50.8367 34.7357 50.4401 34.9267C50.0434 35.1177 49.6944 35.3927 49.4178 35.7321C49.1412 36.0715 48.9437 36.4669 48.8396 36.8902C48.7356 37.3134 48.7276 37.7541 48.8159 38.1808C48.9981 40.3027 49.5545 42.3768 50.46 44.3097C51.2036 45.9456 52.4383 47.3166 53.9971 48.2377C55.5558 49.1588 57.3636 49.5855 59.176 49.4601C63.8733 49.2798 68.5445 49.4601 73.2418 49.4601C73.8362 49.5497 74.4424 49.4057 74.9303 49.059C75.4183 48.7123 75.749 48.1906 75.8514 47.606C77.5336 41.4606 78.1338 35.0757 77.6259 28.7299C77.5795 27.4382 77.0766 26.2034 76.2044 25.2392C75.3322 24.2751 74.1456 23.6424 72.8503 23.4508C68.352 22.4207 63.6743 22.4207 59.176 23.4508C58.0138 23.6335 56.9484 24.1985 56.1526 25.0539C55.3567 25.9094 54.8772 27.0051 54.7919 28.1633C54.2812 32.2095 54.9986 36.3142 56.8534 39.9577C57.1926 40.653 56.8534 41.7088 56.6968 42.5329C55.8878 42.0951 54.6875 41.8376 54.3483 41.1938C53.3044 39.0822 52.5998 36.7902 51.7387 34.4983L51.7125 34.6271ZM57.6364 52.4988C57.2189 56.3615 57.9235 57.1598 61.7074 57.1598H70.6845C74.4684 57.1598 75.199 56.3358 74.7293 52.4988H57.6364Z" fill="white"/>
</svg>
