<svg width="116" height="80" viewBox="0 0 116 80" fill="none" xmlns="http://www.w3.org/2000/svg">
<path d="M36 0H116L96 80H16L36 0Z" fill="#CA151C"/>
<path d="M20 0H25L5 80H0L20 0Z" fill="#CA151C"/>
<path d="M65.3674 17C68.2456 17 71.1238 17.171 73.9769 17C75.9582 17.0315 77.8492 17.8137 79.2504 19.1813C80.6515 20.5489 81.453 22.3948 81.4852 24.3287C81.1338 27.2577 80.5566 30.1567 79.7583 33.001C79.5581 33.514 79.3328 34.2713 79.7583 34.711C80.8179 36.1191 81.7635 37.6056 82.5864 39.1571C83.6066 41.6647 84.0838 44.3512 83.988 47.0476C83.9282 49.8076 83.1255 52.5036 81.6604 54.8649C80.2467 57.5937 78.0569 59.8668 75.3534 61.4119C74.641 61.8186 73.8258 62.0217 73.0008 61.9982C67.9953 61.9982 62.9897 61.9982 57.784 61.9982C56.8051 61.9009 55.8627 61.5832 55.031 61.0699C54.188 60.4983 53.4005 59.8522 52.6784 59.14C51.8134 58.3622 51.0485 57.4844 50.4008 56.5261C49.1518 54.7191 48.2213 52.721 47.6479 50.6143C47.1382 48.7768 46.9271 46.8725 47.0222 44.9711C47.1541 43.2116 47.5591 41.4819 48.2234 39.8411C48.7214 38.5355 49.3858 37.2961 50.2007 36.1523C50.6512 35.4927 51.1518 34.8576 51.6273 34.198C51.5074 33.5177 51.3056 32.8536 51.0265 32.2193C50.294 30.2465 49.7577 28.2095 49.4249 26.1364C48.9886 24.2805 49.2847 22.3322 50.254 20.6798C51.2234 19.0273 52.7949 17.792 54.6556 17.2199C55.2016 17.076 55.7678 17.0182 56.3325 17.0488L65.3674 17ZM65.1672 58.5293C66.9841 58.4194 68.8062 58.4194 70.6232 58.5293C71.5543 58.6156 72.4932 58.4857 73.3632 58.1503C74.2331 57.8149 75.0093 57.2835 75.6287 56.5994C77.7271 54.7084 79.223 52.2674 79.9376 49.5684C80.6522 46.8695 80.5551 44.0267 79.6581 41.3802C78.9604 39.4783 77.8758 37.7338 76.4693 36.2518C75.0628 34.7699 73.3637 33.5809 71.4742 32.7567C68.864 31.6375 65.9728 31.2975 63.165 31.7795C61.498 32.0475 59.8795 32.5494 58.3597 33.2697C55.7946 34.5842 53.6738 36.5949 52.253 39.0594C51.1912 41.1907 50.5784 43.5084 50.4509 45.8751C50.0755 49.2219 53.2791 54.6939 54.5806 55.9398C55.3798 56.9555 56.3961 57.7892 57.5588 58.3827C59.0432 58.6575 60.5603 58.7233 62.0638 58.5781L65.1672 58.5293ZM65.3674 20.3468C62.5143 20.3468 59.6361 20.3468 56.783 20.3468C54.2802 20.3468 51.9777 22.9851 52.7285 25.0127C52.9637 25.8136 53.1392 26.63 53.254 27.4556C53.5543 28.7259 54.0048 29.8985 54.3552 31.1932C54.5304 31.8284 54.7307 31.5352 55.0561 31.3398C57.9189 29.364 61.3125 28.2513 64.8167 28.1396C68.533 27.8498 72.229 28.9016 75.2033 31.0955C76.5547 32.0482 76.3545 30.9001 76.4296 30.5825C77.0052 28.5549 77.4807 26.5273 77.9562 24.4753C78.0188 24.2018 78.0188 23.9182 77.9562 23.6447C77.6541 22.7584 77.0879 21.9803 76.3298 21.4102C75.5718 20.84 74.6565 20.5038 73.7015 20.4445C70.9234 20.4445 68.1455 20.4445 65.3674 20.4445V20.3468Z" fill="white"/>
<path d="M64 46.2653C64 45.7145 64 45.1637 64 44.6129C64.0882 43.3608 64.6532 42.1884 65.5811 41.3322C66.5091 40.4761 67.731 40 69 40C70.269 40 71.4907 40.4761 72.4187 41.3322C73.3467 42.1884 73.9118 43.3608 74 44.6129C74 45.8103 74 47.0077 74 48.1812C73.9292 49.1861 73.5673 50.1496 72.9575 50.9565C72.3478 51.7634 71.516 52.3795 70.5616 52.7313C69.7311 53.0286 68.831 53.0805 67.9711 52.8806C67.1113 52.6807 66.3288 52.2378 65.719 51.6057C65.1418 51.1204 64.6878 50.5079 64.3934 49.8174C64.099 49.127 63.9725 48.3779 64.0241 47.6304C64.0483 47.1757 64.0483 46.72 64.0241 46.2653H64ZM71.2639 46.2653C71.2639 45.6187 71.2639 44.9961 71.2639 44.3495C71.1616 43.843 70.8965 43.3828 70.5081 43.0376C70.1198 42.6923 69.629 42.4804 69.1089 42.4336C68.5725 42.419 68.0484 42.5943 67.6311 42.928C67.2138 43.2617 66.9308 43.7318 66.8329 44.2537C66.7603 45.6098 66.7603 46.9688 66.8329 48.3249C66.9701 48.8518 67.2847 49.3167 67.7248 49.6431C68.1649 49.9696 68.7043 50.1382 69.2542 50.121C69.7733 50.0679 70.2612 49.8504 70.6451 49.5008C71.0291 49.1513 71.2886 48.6884 71.3849 48.1812C71.3849 47.5346 71.3849 46.9119 71.3849 46.2653H71.2639Z" fill="white"/>
<path d="M61.9723 46.3989C61.9723 48.089 61.9723 49.8039 61.9723 51.3697C62.0022 51.5731 61.9835 51.78 61.9173 51.9764C61.851 52.1729 61.7388 52.3543 61.5882 52.5087C61.4376 52.663 61.2521 52.7867 61.044 52.8714C60.8359 52.9562 60.61 53 60.3816 53C60.1531 53 59.9273 52.9562 59.7192 52.8714C59.5111 52.7867 59.3256 52.663 59.175 52.5087C59.0244 52.3543 58.9123 52.1729 58.8461 51.9764C58.7798 51.78 58.7609 51.5731 58.7909 51.3697C58.7909 48.7352 58.7909 46.0758 58.7909 43.4413C58.7909 42.4969 58.5973 42.5217 57.8504 43.0685C57.6122 43.1684 57.3524 43.2202 57.0895 43.2202C56.8266 43.2202 56.5671 43.1684 56.3289 43.0685C55.8309 42.8945 55.1669 42.5217 55.0286 42.0992C54.977 41.8406 54.9954 41.5748 55.0821 41.3239C55.1687 41.0731 55.3211 40.8446 55.5265 40.6577C56.6882 40.0175 57.9333 39.5083 59.2336 39.1416C61.0041 38.6694 62 39.3901 62 41.1298C62 42.8696 62 44.5349 62 46.2498L61.9723 46.3989Z" fill="white"/>
</svg>
