<svg width="116" height="80" viewBox="0 0 116 80" fill="none" xmlns="http://www.w3.org/2000/svg">
<path d="M36 0H116L96 80H16L36 0Z" fill="#CA151C"/>
<path d="M74.6545 45.1073H57.3042C57.3042 47.5709 57.3042 50.0068 57.3042 52.4704C57.3042 54.2142 56.6526 55.0447 54.9148 54.934C54.0188 54.934 53.0956 54.934 52.1996 54.934C47.4208 54.7956 47.9367 55.7643 47.2579 50.7542C47.1231 50.65 46.9641 50.5832 46.7963 50.5604C41.0129 50.0621 41.0129 50.0621 41.0129 44.0555C41.0129 40.2909 41.0129 36.4987 41.0129 32.7341C40.8772 30.1599 41.8004 29.1634 44.2984 29.4679C45.3385 29.5243 46.3807 29.5243 47.4208 29.4679C47.3439 28.6217 47.4175 27.7684 47.6381 26.9489C48.1338 26.2287 48.7386 25.5933 49.43 25.0667C49.43 25.0667 49.593 25.0667 49.7016 25.0667C58.9605 25.0667 57.1413 23.8211 57.3314 32.0975C57.3314 32.928 57.3314 33.7584 57.3314 34.8656H74.7087C74.7087 32.4851 74.7087 30.0215 74.7087 27.5856C74.7087 25.8417 75.3332 25.0113 77.0981 25.122C77.9941 25.122 78.8901 25.122 79.8133 25.122C84.6193 25.122 84.0762 24.3193 84.7279 29.3018C84.8908 29.3018 85.0538 29.4956 85.2167 29.4956C91.0002 29.9108 91 29.9108 91 35.9728C91 39.765 91 43.5296 91 47.2941C91 49.8961 90.2127 50.8926 87.7147 50.5881C86.675 50.5177 85.6318 50.5177 84.5921 50.5881C84.6679 51.4342 84.5942 52.2874 84.3749 53.107C83.8791 53.8273 83.2743 54.4626 82.5829 54.9893C82.5829 54.9893 82.42 54.9893 82.3114 54.9893C73.0525 54.8509 74.8446 56.2349 74.6817 47.9584C74.6817 47.128 74.6817 46.2976 74.6817 45.1904L74.6545 45.1073ZM53.9374 28.499H50.8964V51.4462H53.9374V28.499ZM77.9942 51.5015H81.008V28.5544H77.9942V51.5015ZM74.5458 38.5194H57.3042V41.5089H74.4372V38.5194H74.5458ZM47.3936 47.1003V32.9279H44.4885V47.1003H47.3936ZM84.6737 32.9279V47.0727H87.606V32.9279H84.6737Z" fill="white"/>
<path d="M20 0H25L5 80H0L20 0Z" fill="#CA151C"/>
</svg>
