<svg width="116" height="80" viewBox="0 0 116 80" fill="none" xmlns="http://www.w3.org/2000/svg">
<path d="M36 0H116L96 80H16L36 0Z" fill="#CA151C"/>
<path d="M20 0H25L5 80H0L20 0Z" fill="#CA151C"/>
<path d="M48.7787 37.6395H45.3054C44.8982 35.2016 44.8982 32.7135 45.3054 30.2756C46.0724 27.8393 47.7415 25.7846 49.9742 24.5281C51.7327 23.5681 53.6978 23.0444 55.7029 23.0014C58.2534 22.9652 60.7653 23.6251 62.9655 24.9097C63.9804 25.4934 64.5218 26.5038 65.6495 26.9752C66.4389 26.3466 67.2508 25.6057 68.153 25.022C70.3581 23.5681 72.9782 22.8668 75.6185 23.0238C77.5481 23.0336 79.443 23.5361 81.1218 24.4832C82.2872 25.1359 83.3115 26.0113 84.136 27.0593C84.9604 28.1073 85.5687 29.3072 85.9258 30.5899C86.5729 33.026 86.6347 35.5794 86.1063 38.0436C85.5892 39.8871 84.8942 41.6766 84.0312 43.387C83.0421 45.218 81.8218 46.9157 80.4 48.4385C76.8824 52.0388 72.7215 54.9549 68.1304 57.0373L66.7095 57.7108C66.4092 57.8792 66.0742 57.9769 65.7301 57.9964C65.3861 58.0158 65.0421 57.9565 64.7247 57.823C62.1495 56.7344 59.6807 55.4117 57.3495 53.8717C54.7208 52.1046 52.3129 50.032 50.1771 47.6976C49.3651 46.7771 48.6885 45.7444 47.7863 44.532C49.32 44.3524 50.5606 44.532 51.8236 44.4197C53.7692 47.1809 56.3029 49.4807 59.244 51.1551C60.8191 52.3345 62.5212 53.3361 64.3187 54.1411C64.7191 54.3355 65.1588 54.4366 65.6043 54.4366C66.0498 54.4366 66.4895 54.3355 66.8899 54.1411C68.8183 53.2526 70.654 52.1773 72.3706 50.9306C74.365 49.6674 76.1912 48.1587 77.8062 46.4404C79.6964 44.2587 81.2197 41.7871 82.3171 39.1213C83.0405 37.2632 83.3633 35.2743 83.2645 33.284C83.1452 32.0613 82.7681 30.8775 82.1579 29.8097C81.5478 28.742 80.7182 27.8143 79.7234 27.0875C78.3137 26.2279 76.6848 25.7914 75.032 25.8302C72.143 26.1494 69.4792 27.5354 67.5665 29.7143C67.3184 30.0061 67.1606 30.3878 66.9125 30.6573C66.7559 30.834 66.5632 30.9756 66.3474 31.0726C66.1316 31.1696 65.8976 31.2197 65.6608 31.2197C65.424 31.2197 65.1898 31.1696 64.974 31.0726C64.7582 30.9756 64.5655 30.834 64.4089 30.6573C64.125 30.3892 63.8751 30.0876 63.6647 29.7592C62.8952 28.5605 61.8347 27.5743 60.5811 26.8915C59.3275 26.2087 57.9214 25.8515 56.4924 25.8527C55.106 25.8386 53.7291 26.0823 52.4325 26.5711C51.5795 26.9507 50.8181 27.5077 50.1995 28.2048C49.5809 28.9019 49.1195 29.7228 48.8464 30.6123C48.423 32.8336 48.3697 35.1091 48.6885 37.3476L48.7787 37.6395Z" fill="white"/>
<path d="M73.2636 40.9991C72.5688 42.0441 70.2377 46.5195 69.3636 48.1779C68.9826 48.9048 68.7586 49.3365 67.9293 49.3819C67.1 49.4273 66.6069 48.9048 66.3155 48.0416C65.5983 45.9743 64.7466 43.9524 64.0742 41.9078C63.6932 40.84 63.3794 39.7496 62.9535 38.3866C61.9674 40.5447 59.9054 45.2018 59.7036 45.6562C59.5594 45.9162 59.3495 46.1326 59.0954 46.2832C58.8414 46.4339 58.5524 46.5133 58.2581 46.5133C57.9638 46.5133 57.6747 46.4339 57.4206 46.2832C57.1666 46.1326 56.9567 45.9162 56.8124 45.6562C56.2745 44.2931 54.5711 40.4085 54.1453 39.6815C53.5625 40.5902 52.8229 42.3621 52.285 42.5666C50.8442 42.6482 49.4 42.6482 47.9593 42.5666C47.3317 42.5666 46.0767 42.5666 46.0767 41.3172C46.0767 40.0677 46.5249 39.7269 46.7266 39.6133C46.9283 39.4998 49.4161 39.6133 50.716 39.6133C51.4781 38.432 52.0832 37.1371 52.9573 35.7967C53.3607 35.1152 53.585 34.6381 54.4591 34.6609C55.3332 34.6836 55.5797 35.0698 55.9383 35.8422C56.5658 37.2961 58.0451 40.3857 58.1796 40.9537C58.8071 39.8859 60.914 35.3424 61.5864 33.7749C61.6763 33.4301 61.888 33.1307 62.1815 32.9339C62.4749 32.737 62.8295 32.6563 63.1778 32.7072C64.0294 32.7072 64.3207 33.1615 64.5896 33.9566C65.4637 36.5237 66.4724 39.0454 67.4361 41.5898C67.6603 42.2259 67.8396 42.8847 68.1534 43.8615C68.9871 42.134 69.9072 40.4507 70.9101 38.8182C71.3135 38.4093 71.8739 38.5683 72.5015 38.5456C73.129 38.5229 73.4876 38.5456 73.6221 38.5456C73.8395 38.2158 74.1324 37.9443 74.4759 37.7544C74.8194 37.5645 75.2032 37.4618 75.5945 37.4551C76.074 37.424 76.5527 37.527 76.9783 37.7529C77.404 37.9788 77.7602 38.3189 78.0081 38.7361C78.2561 39.1532 78.3863 39.6314 78.3843 40.1184C78.3824 40.6054 78.2484 41.0825 77.9972 41.4976C77.7459 41.9127 77.387 42.2498 76.9596 42.4722C76.5321 42.6947 76.0526 42.7937 75.5734 42.7587C75.0942 42.7237 74.6336 42.5559 74.2421 42.2736C73.8506 41.9913 73.5431 41.6055 73.3532 41.1581L73.2636 40.9991Z" fill="white"/>
</svg>
