<svg width="130" height="70" viewBox="0 0 130 70" fill="none" xmlns="http://www.w3.org/2000/svg">
<path d="M0 36.647C4.87033 37.4397 9.75 38.1558 14.6392 38.7955V48.745L10.6801 48.5677V44.25L5.9669 43.8328V50.0904L9.61493 50.2155V56.0456L5.9669 56.1186V63.4191L10.6801 63.0228V57.6621L14.6392 57.5474V67.9767C9.74371 68.5468 4.86404 69.2213 0 70V63.9718L1.88529 63.7737V43.4887L0 43.2905V36.647Z" fill="white"/>
<path d="M38.9028 41.121C43.8171 41.4339 48.7283 41.6668 53.6364 41.8197V49.9129L49.6583 49.8608V46.4608L44.9451 46.3148V51.1123L48.6214 51.1749V55.7638H44.9451V61.3956L49.6583 61.3226V57.0674H53.6457V65.5673C48.7314 65.6716 43.8171 65.835 38.9028 66.0575C38.9028 64.2532 38.9028 63.3459 38.9028 61.5521L40.8446 61.4999V46.2001L38.9028 46.1166V41.121Z" fill="white"/>
<path d="M57.5201 41.9449C60.7942 42.0075 64.062 42.0284 67.3235 42.0075C68.2013 41.9872 69.0737 42.1647 69.8876 42.529C70.5933 42.8476 71.2312 43.3258 71.7603 43.9328C72.2895 44.5398 72.6983 45.2623 72.9606 46.0541C73.2319 46.8543 73.3692 47.7025 73.3659 48.5572C73.3734 49.2586 73.307 49.9586 73.168 50.643C73.0483 51.2082 72.8512 51.7498 72.5835 52.2491C72.3297 52.7147 72.0117 53.1334 71.6409 53.4902C71.2467 53.8642 70.8169 54.1894 70.3589 54.4601C70.8093 54.7725 71.187 55.1977 71.4617 55.7012C71.8132 56.365 72.0558 57.0924 72.1781 57.8497C72.4327 59.0803 72.5552 59.6852 72.8003 60.9159H74.3368C74.3368 62.7619 74.3368 63.6797 74.3368 65.5257L68.9544 65.4527C68.7093 63.5963 68.4673 61.7363 68.2285 59.873C68.1687 59.2915 68.055 58.7184 67.8892 58.1626C67.7604 57.7295 67.5553 57.329 67.2859 56.9841C67.0252 56.6779 66.7019 56.4454 66.3432 56.3062C65.9272 56.152 65.4904 56.0779 65.0518 56.0871H63.4776V61.1871H65.1838V65.4214C62.6198 65.4214 60.0589 65.4422 57.5012 65.4839V61.2184H59.3865V46.2418H57.5012V41.9658L57.5201 41.9449ZM63.4964 46.2627V51.9467H65.9378C66.3606 51.9535 66.7823 51.8974 67.1915 51.7798C67.5356 51.6874 67.8573 51.513 68.1342 51.2688C68.3984 51.0347 68.6085 50.7345 68.7469 50.3927C68.8928 49.9957 68.9635 49.5697 68.9544 49.1412C68.9707 48.7532 68.9109 48.3658 68.7791 48.0057C68.6473 47.6457 68.4466 47.3214 68.1908 47.0553C67.5484 46.5002 66.7409 46.2322 65.9284 46.3044L63.4964 46.2627Z" fill="white"/>
<path d="M78.1076 41.7991C83.0219 41.6253 87.9331 41.3679 92.8411 41.0273V49.6002C91.248 49.6002 90.4563 49.6732 88.8632 49.7045V46.2107C87.2795 46.2732 85.6959 46.3358 84.15 46.3775V51.1646L87.8262 51.102V55.7952H84.15V61.4062L88.8632 61.5105V57.1301H92.8411C92.8411 60.1338 92.8411 63.127 92.8411 66.1307C87.9268 65.8873 83.0125 65.71 78.0981 65.5987V61.2915H80.0399V46.5026H78.0981V41.7573L78.1076 41.7991Z" fill="white"/>
<path d="M106.132 47.5248C106.091 47.123 105.989 46.7317 105.831 46.3672C105.684 46.0191 105.476 45.707 105.218 45.4494C104.976 45.1953 104.691 44.9968 104.379 44.8654C104.077 44.7455 103.757 44.6923 103.436 44.7089C103.14 44.7253 102.847 44.7922 102.569 44.9071C102.309 45.0076 102.072 45.1675 101.872 45.3764C101.665 45.5947 101.502 45.8573 101.391 46.1481C101.276 46.481 101.218 46.8347 101.221 47.1911C101.201 47.6171 101.282 48.0415 101.457 48.4217C101.607 48.7144 101.817 48.9643 102.069 49.1518C102.323 49.3423 102.599 49.4932 102.89 49.6002C103.187 49.7012 103.48 49.8195 103.766 49.9548C105.105 50.5597 105.774 50.8726 107.122 51.4984C107.601 51.7442 108.041 52.0754 108.423 52.4788C108.849 52.9261 109.205 53.4475 109.479 54.0223C109.791 54.6816 110.026 55.3827 110.176 56.1081C110.354 56.9983 110.44 57.9081 110.431 58.8197C110.447 60.0681 110.282 61.3112 109.941 62.5013C109.655 63.5179 109.183 64.4586 108.555 65.2651C107.981 66.0058 107.249 66.5758 106.425 66.9233C105.548 67.2913 104.606 67.4305 103.672 67.3301C102.983 67.2824 102.305 67.1134 101.664 66.8295C101.044 66.5595 100.463 66.1905 99.9392 65.7344C99.4204 65.2734 98.9605 64.7366 98.5723 64.1387C98.1706 63.5188 97.853 62.8371 97.6297 62.1154L96.376 62.0633V56.9842H100.787V58.0272C100.787 58.5172 100.847 59.0049 100.967 59.4768C101.077 59.8952 101.256 60.2877 101.494 60.6345C101.746 60.9794 102.069 61.2513 102.437 61.4271C102.829 61.6364 103.256 61.7502 103.691 61.7608C103.997 61.8008 104.307 61.7613 104.596 61.6455C104.886 61.5296 105.147 61.3406 105.359 61.0934C105.786 60.5053 105.991 59.7586 105.934 59.0075C105.947 58.6158 105.876 58.2262 105.727 57.8707C105.601 57.5781 105.429 57.3131 105.218 57.0885C105.002 56.8808 104.765 56.7022 104.511 56.5566C104.247 56.4106 103.992 56.2854 103.738 56.1603C102.626 55.6284 102.06 55.3676 100.91 54.8566C100.362 54.6121 99.8458 54.2896 99.3735 53.8971C98.8682 53.4709 98.4288 52.9566 98.0727 52.3744C97.6632 51.7182 97.3454 50.9974 97.13 50.2364C96.8924 49.332 96.778 48.3935 96.7907 47.4518C96.7791 46.33 96.945 45.2146 97.2809 44.1561C97.5845 43.2279 98.0488 42.3742 98.6478 41.6427C99.2367 40.9328 99.9441 40.3555 100.731 39.9427C101.567 39.5157 102.463 39.2511 103.38 39.1605C104.081 39.0813 104.789 39.1378 105.473 39.3274C106.088 39.5005 106.671 39.7897 107.198 40.1825C107.698 40.5491 108.136 41.0118 108.489 41.5488C108.832 42.069 109.105 42.6417 109.3 43.2488L110.516 43.1445V48.7346L106.113 48.9223V47.3371L106.132 47.5248Z" fill="white"/>
<path d="M117.567 62.8663L119.452 63.0123C119.452 56.5253 119.452 50.0313 119.452 43.5304L117.218 43.739V47.5665L113.259 47.7855C113.259 44.8792 113.259 41.9695 113.259 39.0562C118.858 38.3609 124.438 37.5579 130 36.647V46.7947L126.032 47.045V42.8733L123.496 43.134V63.3356L125.438 63.5129V69.2804C122.817 68.8841 120.187 68.5399 117.557 68.2374V62.8663H117.567Z" fill="white"/>
<path d="M114.38 28.1158C114.12 28.1593 113.854 28.0921 113.636 27.928L101.381 22.2753C101.304 22.2197 101.237 22.149 101.183 22.0667L93.1142 8.89447C93.0169 8.75235 92.8991 8.62903 92.7654 8.52947L79.7759 0.290306C79.3999 0.0444251 78.9584 -0.0494487 78.5269 0.0247348C78.0954 0.0989182 77.7006 0.336541 77.4098 0.697033L77.3532 0.770046L67.1633 13.619C67.0379 13.7811 66.8757 13.9033 66.6935 13.973C66.5112 14.0426 66.3155 14.0573 66.1264 14.0153L58.3589 12.3362C58.026 12.2609 57.6818 12.2736 57.3542 12.3732C57.0266 12.4729 56.7249 12.6568 56.4736 12.9098L42.7582 26.8538C42.6705 26.9387 42.572 27.009 42.4659 27.0624L33.822 31.0672C33.4994 31.2236 33.2106 31.4543 32.9749 31.7438C32.7393 32.0334 32.562 32.3751 32.4551 32.7463L26.5259 60.2798L20.2196 28.2722C20.1336 28.0132 19.9821 27.7871 19.7832 27.6207C19.5843 27.4543 19.3465 27.3546 19.0979 27.3336C15.874 27.0624 1.18753 28.5225 0.0280762 28.3765C1.52688 28.752 16.2228 30.3476 16.2228 30.3476L23.9148 67.0589L28.9201 66.6625C28.9201 66.6625 35.7449 36.7304 36.3482 34.8218L45.4353 31.1298L55.6348 20.106L60.5648 26.082L66.7108 23.068L77.6643 26.082L81.5197 18.9692L89.8621 23.4434L96.5267 19.1256L99.6373 23.798L113.551 30.2955C113.551 30.2955 128.463 28.4495 129.924 28.0114C128.426 28.2513 114.324 28.0949 114.324 28.0949L114.38 28.1158ZM90.4465 21.1281C90.2416 21.2411 90.0157 21.2999 89.7867 21.2999C89.5577 21.2999 89.3318 21.2411 89.1268 21.1281L81.7082 16.9564C81.6194 16.899 81.521 16.8619 81.419 16.8471C81.317 16.8323 81.2134 16.8402 81.1142 16.8703C81.015 16.9004 80.9222 16.9522 80.8413 17.0225C80.7604 17.0928 80.693 17.1802 80.643 17.2797L77.2684 23.8814C77.1808 24.0492 77.0454 24.1803 76.8834 24.2539C76.7213 24.3275 76.5418 24.3395 76.3729 24.2882L67.069 21.3784C66.9008 21.3164 66.7188 21.3164 66.5505 21.3784L61.6676 23.652C61.5337 23.7144 61.3867 23.7338 61.2433 23.7079C61.0999 23.6821 60.966 23.6121 60.8569 23.506L56.4171 19.2717L58.6795 16.8312L68.3981 19.4386L79.361 4.83751L91.1535 10.9803L95.6877 17.7803C94.2077 18.7502 91.6248 20.4293 90.4465 21.0968V21.1281Z" fill="#CA151C"/>
</svg>
