<svg width="156" height="84" viewBox="0 0 156 84" fill="none" xmlns="http://www.w3.org/2000/svg">
<path d="M0 43.9766C5.8444 44.9277 11.7 45.7871 17.567 46.5547V58.4942L12.8162 58.2814V53.1001L7.16028 52.5995V60.1086L11.5379 60.2588V67.2548L7.16028 67.3424V76.1031L12.8162 75.6275V69.1946L17.567 69.057V81.5722C11.6925 82.2564 5.83686 83.0657 0 84.0001V76.7663L2.26235 76.5285V52.1865L0 51.9487V43.9766Z" fill="white"/>
<path d="M46.6836 49.3452C52.5808 49.7207 58.4742 50.0002 64.3639 50.1837V59.8955L59.5902 59.833V55.753L53.9343 55.5778V61.3348L58.3459 61.4099V66.9165H53.9343V73.6748L59.5902 73.5871V68.4809H64.375V78.6808C58.4778 78.806 52.5808 79.002 46.6836 79.269C46.6836 77.1039 46.6836 76.0151 46.6836 73.8625L49.0137 73.7999V55.4401L46.6836 55.34V49.3452Z" fill="white"/>
<path d="M69.0246 50.334C72.9535 50.4091 76.8748 50.4341 80.7887 50.4091C81.842 50.3847 82.8889 50.5976 83.8656 51.0348C84.7125 51.4172 85.4779 51.991 86.1129 52.7194C86.7479 53.4478 87.2385 54.3148 87.5532 55.265C87.8788 56.2252 88.0436 57.2431 88.0396 58.2687C88.0486 59.1104 87.9689 59.9504 87.8021 60.7717C87.6584 61.4499 87.4219 62.0999 87.1007 62.699C86.7962 63.2576 86.4145 63.7602 85.9696 64.1883C85.4966 64.6371 84.9807 65.0273 84.4312 65.3522C84.9717 65.7271 85.4249 66.2373 85.7546 66.8415C86.1764 67.638 86.4675 68.5109 86.6143 69.4197C86.9197 70.8965 87.0668 71.6223 87.3609 73.0991H89.2047C89.2047 75.3143 89.2047 76.4157 89.2047 78.6309L82.7457 78.5433C82.4516 76.3156 82.1613 74.0837 81.8747 71.8476C81.8029 71.1498 81.6665 70.4621 81.4675 69.7952C81.313 69.2755 81.0669 68.7948 80.7435 68.381C80.4308 68.0136 80.0428 67.7345 79.6124 67.5674C79.1132 67.3824 78.589 67.2935 78.0627 67.3046H76.1736V73.4245H78.2211V78.5057C75.1443 78.5057 72.0712 78.5307 69.002 78.5808V73.4621H71.2643V55.4902H69.002V50.359L69.0246 50.334ZM76.1962 55.5153V62.3361H79.1259C79.6332 62.3443 80.1392 62.2769 80.6303 62.1358C81.0432 62.0249 81.4293 61.8157 81.7615 61.5226C82.0786 61.2417 82.3307 60.8814 82.4968 60.4713C82.6718 59.9949 82.7566 59.4837 82.7457 58.9695C82.7654 58.5038 82.6936 58.039 82.5354 57.6069C82.3773 57.1748 82.1364 56.7858 81.8294 56.4665C81.0585 55.8003 80.0896 55.4786 79.1146 55.5653L76.1962 55.5153Z" fill="white"/>
<path d="M93.7291 50.1589C99.6263 49.9503 105.52 49.6415 111.409 49.2327V59.5202C109.498 59.5202 108.548 59.6078 106.636 59.6453V55.4528C104.735 55.5278 102.835 55.6029 100.98 55.653V61.3975L105.391 61.3224V66.9542H100.98V73.6874L106.636 73.8125V68.5561H111.409C111.409 72.1605 111.409 75.7524 111.409 79.3568C105.512 79.0647 99.615 78.852 93.7178 78.7185V73.5498H96.0479V55.8031H93.7178V50.1087L93.7291 50.1589Z" fill="white"/>
<path d="M127.359 57.0298C127.309 56.5476 127.187 56.0781 126.997 55.6406C126.821 55.2229 126.571 54.8484 126.262 54.5393C125.971 54.2344 125.629 53.9962 125.255 53.8384C124.893 53.6946 124.508 53.6308 124.124 53.6507C123.768 53.6704 123.417 53.7506 123.083 53.8885C122.771 54.0091 122.486 54.201 122.246 54.4517C121.999 54.7136 121.802 55.0288 121.669 55.3778C121.531 55.7772 121.462 56.2017 121.466 56.6293C121.441 57.1405 121.539 57.6498 121.748 58.1061C121.929 58.4573 122.18 58.7572 122.484 58.9822C122.788 59.2108 123.119 59.3919 123.468 59.5203C123.825 59.6414 124.176 59.7834 124.52 59.9458C126.126 60.6717 126.929 61.0472 128.547 61.7981C129.122 62.0931 129.649 62.4905 130.108 62.9745C130.619 63.5114 131.047 64.137 131.375 64.8267C131.75 65.618 132.031 66.4592 132.212 67.3298C132.425 68.398 132.528 69.4897 132.517 70.5837C132.537 72.0817 132.338 73.5735 131.929 75.0016C131.586 76.2215 131.02 77.3504 130.266 78.3182C129.577 79.2069 128.699 79.8909 127.71 80.308C126.657 80.7496 125.527 80.9166 124.407 80.7961C123.58 80.7389 122.766 80.5361 121.997 80.1954C121.253 79.8714 120.556 79.4286 119.927 78.8813C119.305 78.3281 118.753 77.6839 118.287 76.9665C117.805 76.2225 117.424 75.4046 117.156 74.5385L115.651 74.476V68.3811H120.945V69.6326C120.944 70.2206 121.017 70.8059 121.16 71.3722C121.293 71.8743 121.507 72.3452 121.794 72.7614C122.095 73.1752 122.484 73.5016 122.925 73.7125C123.395 73.9637 123.908 74.1003 124.429 74.113C124.796 74.161 125.168 74.1136 125.516 73.9746C125.864 73.8355 126.177 73.6087 126.431 73.3121C126.943 72.6064 127.19 71.7104 127.121 70.809C127.137 70.339 127.052 69.8715 126.873 69.4449C126.722 69.0937 126.515 68.7757 126.262 68.5062C126.003 68.2569 125.718 68.0427 125.413 67.8679C125.097 67.6927 124.791 67.5425 124.486 67.3923C123.151 66.7541 122.472 66.4412 121.092 65.8279C120.435 65.5345 119.815 65.1475 119.248 64.6766C118.642 64.1651 118.115 63.548 117.687 62.8493C117.196 62.0618 116.815 61.1969 116.556 60.2837C116.271 59.1985 116.134 58.0722 116.149 56.9422C116.135 55.596 116.334 54.2576 116.737 52.9873C117.102 51.8736 117.659 50.8491 118.378 49.9712C119.084 49.1194 119.933 48.4267 120.877 47.9312C121.88 47.4189 122.956 47.1014 124.056 46.9926C124.897 46.8976 125.747 46.9654 126.567 47.1929C127.305 47.4006 128.006 47.7477 128.637 48.2191C129.238 48.6589 129.763 49.2142 130.187 49.8585C130.599 50.4829 130.926 51.17 131.16 51.8985L132.619 51.7734V58.4815L127.336 58.7068V56.8045L127.359 57.0298Z" fill="white"/>
<path d="M141.08 75.4397L143.342 75.6149C143.342 67.8305 143.342 60.0377 143.342 52.2366L140.662 52.4869V57.0799L135.911 57.3428C135.911 53.8552 135.911 50.3635 135.911 46.8676C142.63 46.0332 149.326 45.0696 156 43.9766V56.1538L151.238 56.4542V51.4481L148.195 51.761V76.0029L150.525 76.2156V83.1366C147.381 82.661 144.225 82.248 141.069 81.8851V75.4397H141.08Z" fill="white"/>
<path d="M137.257 33.7389C136.944 33.7911 136.624 33.7106 136.363 33.5136L121.658 26.7304C121.565 26.6637 121.485 26.5788 121.42 26.4801L111.737 10.6734C111.62 10.5028 111.479 10.3548 111.319 10.2354L95.7311 0.348367C95.28 0.0533101 94.7502 -0.0593384 94.2324 0.0296817C93.7146 0.118702 93.2408 0.403849 92.8919 0.83644L92.8239 0.924055L80.596 16.3428C80.4456 16.5373 80.251 16.684 80.0322 16.7676C79.8135 16.8512 79.5787 16.8687 79.3518 16.8184L70.0308 14.8034C69.6313 14.7131 69.2183 14.7283 68.8252 14.8479C68.432 14.9675 68.0699 15.1881 67.7684 15.4918L51.3099 32.2246C51.2047 32.3264 51.0865 32.4108 50.9592 32.4749L40.5864 37.2807C40.1993 37.4684 39.8528 37.7452 39.57 38.0926C39.2872 38.44 39.0745 38.8501 38.9461 39.2956L31.8311 72.3358L24.2635 33.9266C24.1603 33.6159 23.9785 33.3445 23.7399 33.1448C23.5012 32.9451 23.2158 32.8256 22.9175 32.8003C19.0488 32.4749 1.42504 34.227 0.0336914 34.0518C1.83226 34.5024 19.4673 36.4171 19.4673 36.4171L28.6977 80.4706L34.7042 79.995C34.7042 79.995 42.8939 44.0765 43.6179 41.7862L54.5224 37.3558L66.7618 24.1272L72.6778 31.2985L80.0531 27.6815L93.1973 31.2985L97.8238 22.7631L107.835 28.1321L115.832 22.9508L119.565 28.5576L136.261 36.3546C136.261 36.3546 154.156 34.1394 155.91 33.6137C154.111 33.9016 137.189 33.7139 137.189 33.7139L137.257 33.7389ZM108.536 25.3537C108.29 25.4893 108.019 25.5598 107.744 25.5598C107.469 25.5598 107.198 25.4893 106.952 25.3537L98.05 20.3477C97.9433 20.2788 97.8254 20.2342 97.703 20.2165C97.5806 20.1988 97.4562 20.2083 97.3372 20.2444C97.2181 20.2805 97.1067 20.3426 97.0097 20.427C96.9126 20.5113 96.8317 20.6162 96.7717 20.7356L92.7222 28.6577C92.6171 28.8591 92.4546 29.0163 92.2602 29.1046C92.0657 29.193 91.8503 29.2074 91.6476 29.1458L80.4829 25.6541C80.281 25.5797 80.0627 25.5797 79.8607 25.6541L74.0012 28.3824C73.8405 28.4573 73.6641 28.4805 73.4921 28.4495C73.32 28.4186 73.1593 28.3346 73.0284 28.2072L67.7006 23.126L70.4155 20.1975L82.0778 23.3263L95.2334 5.80501L109.384 13.1764L114.825 21.3363C113.049 22.5002 109.95 24.5152 108.536 25.3162V25.3537Z" fill="#CA151C"/>
</svg>
